# Made in Blockbench 5.1.6
mtllib waxedlightlyweatheredcutcoppertriacontadihedron.mtl

o sphere
v 0.5 0 0.5
v 0.5 1 0.5
v 0.646446875 0.853553125 0.853553125
v 0.707106875 0.5 1
v 0.646446875 0.14644687499999998 0.853553125
v 0.853553125 0.853553125 0.646446875
v 1 0.5 0.707106875
v 0.853553125 0.14644687499999998 0.646446875
v 0.853553125 0.853553125 0.353553125
v 1 0.5 0.292893125
v 0.853553125 0.14644687499999998 0.353553125
v 0.646446875 0.853553125 0.14644687499999998
v 0.707106875 0.5 0
v 0.646446875 0.14644687499999998 0.14644687499999998
v 0.353553125 0.853553125 0.14644687499999998
v 0.292893125 0.5 0
v 0.353553125 0.14644687499999998 0.14644687499999998
v 0.14644687499999998 0.853553125 0.353553125
v 0 0.5 0.292893125
v 0.14644687499999998 0.14644687499999998 0.353553125
v 0.14644687499999998 0.853553125 0.646446875
v 0 0.5 0.707106875
v 0.14644687499999998 0.14644687499999998 0.646446875
v 0.353553125 0.853553125 0.853553125
v 0.292893125 0.5 1
v 0.353553125 0.14644687499999998 0.853553125
vt 0 0
vt 0.6944901298701299 0
vt 0.34724506493506496 0.9886103896103896
vt 0.14384194805194805 0.9886103896103896
vt 0 0
vt 0.9821740259740259 0
vt 0.8383320779220779 0.9886103896103896
vt 0 0.9886103896103896
vt 0.14384194805194805 0
vt 0.8383320779220779 0
vt 0.9821740259740259 0.9886103896103896
vt 0.6944901298701299 0.9886103896103896
vt 0 0.9886103896103896
vt 0.34724506493506496 0
vt 0 0
vt 0.6944901298701299 0
vt 0.34724506493506496 0.9886103896103896
vt 0.14384194805194805 0.9886103896103896
vt 0 0
vt 0.9821740259740259 0
vt 0.8383320779220779 0.9886103896103896
vt 0 0.9886103896103896
vt 0.14384194805194805 0
vt 0.8383320779220779 0
vt 0.9821740259740259 0.9886103896103896
vt 0.6944901298701299 0.9886103896103896
vt 0 0.9886103896103896
vt 0.34724506493506496 0
vt 0 0
vt 0.6944901298701299 0
vt 0.34724506493506496 0.9886103896103896
vt 0.14384194805194805 0.9886103896103896
vt 0 0
vt 0.9821740259740259 0
vt 0.8383320779220779 0.9886103896103896
vt 0 0.9886103896103896
vt 0.14384194805194805 0
vt 0.8383320779220779 0
vt 0.9821740259740259 0.9886103896103896
vt 0.6944901298701299 0.9886103896103896
vt 0 0.9886103896103896
vt 0.34724506493506496 0
vt 0 0
vt 0.6944901298701299 0
vt 0.34724506493506496 0.9886103896103896
vt 0.14384194805194805 0.9886103896103896
vt 0 0
vt 0.9821740259740259 0
vt 0.8383320779220779 0.9886103896103896
vt 0 0.9886103896103896
vt 0.14384194805194805 0
vt 0.8383320779220779 0
vt 0.9821740259740259 0.9886103896103896
vt 0.6944901298701299 0.9886103896103896
vt 0 0.9886103896103896
vt 0.34724506493506496 0
vt 0 0
vt 0.6944901298701299 0
vt 0.34724506493506496 0.9886103896103896
vt 0.14384194805194805 0.9886103896103896
vt 0 0
vt 0.9821740259740259 0
vt 0.8383320779220779 0.9886103896103896
vt 0 0.9886103896103896
vt 0.14384194805194805 0
vt 0.8383320779220779 0
vt 0.9821740259740259 0.9886103896103896
vt 0.6944901298701299 0.9886103896103896
vt 0 0.9886103896103896
vt 0.34724506493506496 0
vt 0 0
vt 0.6944901298701299 0
vt 0.34724506493506496 0.9886103896103896
vt 0.14384194805194805 0.9886103896103896
vt 0 0
vt 0.9821740259740259 0
vt 0.8383320779220779 0.9886103896103896
vt 0 0.9886103896103896
vt 0.14384194805194805 0
vt 0.8383320779220779 0
vt 0.9821740259740259 0.9886103896103896
vt 0.6944901298701299 0.9886103896103896
vt 0 0.9886103896103896
vt 0.34724506493506496 0
vt 0 0
vt 0.6944901298701299 0
vt 0.34724506493506496 0.9886103896103896
vt 0.14384194805194805 0.9886103896103896
vt 0 0
vt 0.9821740259740259 0
vt 0.8383320779220779 0.9886103896103896
vt 0 0.9886103896103896
vt 0.14384194805194805 0
vt 0.8383320779220779 0
vt 0.9821740259740259 0.9886103896103896
vt 0.6944901298701299 0.9886103896103896
vt 0 0.9886103896103896
vt 0.34724506493506496 0
vt 0 0
vt 0.6944901298701299 0
vt 0.34724506493506496 0.9886103896103896
vt 0.14384194805194805 0.9886103896103896
vt 0 0
vt 0.9821740259740259 0
vt 0.8383320779220779 0.9886103896103896
vt 0 0.9886103896103896
vt 0.14384194805194805 0
vt 0.8383320779220779 0
vt 0.9821740259740259 0.9886103896103896
vt 0.6944901298701299 0.9886103896103896
vt 0 0.9886103896103896
vt 0.34724506493506496 0
vn 0.2705984689562888 0.9238792871349724 0.2705984689562888
vn 0.6532813672328766 0.38268382570039067 0.6532813672328767
vn 0.6532813672328766 -0.3826838257003907 0.6532813672328766
vn 0.2705984689562888 -0.9238792871349724 0.2705984689562888
vn 0.3826842701319615 0.9238791854964414 0
vn 0.9238791854964414 0.38268427013196143 0
vn 0.9238791854964414 -0.38268427013196143 0
vn 0.3826842701319615 -0.9238791854964414 0
vn 0.2705984689562888 0.9238792871349724 -0.2705984689562888
vn 0.6532813672328767 0.38268382570039067 -0.6532813672328766
vn 0.6532813672328766 -0.3826838257003907 -0.6532813672328766
vn 0.2705984689562888 -0.9238792871349724 -0.2705984689562888
vn 0 0.9238791854964414 -0.3826842701319615
vn 0 0.38268427013196143 -0.9238791854964414
vn 0 -0.38268427013196143 -0.9238791854964414
vn 0 -0.9238791854964414 -0.3826842701319615
vn -0.2705984689562888 0.9238792871349724 -0.2705984689562888
vn -0.6532813672328766 0.38268382570039067 -0.6532813672328767
vn -0.6532813672328766 -0.3826838257003907 -0.6532813672328766
vn -0.2705984689562888 -0.9238792871349724 -0.2705984689562888
vn -0.3826842701319615 0.9238791854964414 0
vn -0.9238791854964414 0.38268427013196143 0
vn -0.9238791854964414 -0.38268427013196143 0
vn -0.3826842701319615 -0.9238791854964414 0
vn -0.2705984689562888 0.9238792871349724 0.2705984689562888
vn -0.6532813672328767 0.38268382570039067 0.6532813672328766
vn -0.6532813672328766 -0.3826838257003907 0.6532813672328766
vn -0.2705984689562888 -0.9238792871349724 0.2705984689562888
vn 0 0.9238791854964414 0.3826842701319615
vn 0 0.38268427013196143 0.9238791854964414
vn 0 -0.38268427013196143 0.9238791854964414
vn 0 -0.9238791854964414 0.3826842701319615
usemtl m_15c50e8a-ff0a-d56a-2d73-8f018745a8dc
f 3/1/1 6/2/1 2/3/1
f 3/4/2 4/5/2 7/6/2 6/7/2
f 4/8/3 5/9/3 8/10/3 7/11/3
f 8/12/4 5/13/4 1/14/4
f 6/15/5 9/16/5 2/17/5
f 6/18/6 7/19/6 10/20/6 9/21/6
f 7/22/7 8/23/7 11/24/7 10/25/7
f 11/26/8 8/27/8 1/28/8
f 9/29/9 12/30/9 2/31/9
f 9/32/10 10/33/10 13/34/10 12/35/10
f 10/36/11 11/37/11 14/38/11 13/39/11
f 14/40/12 11/41/12 1/42/12
f 12/43/13 15/44/13 2/45/13
f 12/46/14 13/47/14 16/48/14 15/49/14
f 13/50/15 14/51/15 17/52/15 16/53/15
f 17/54/16 14/55/16 1/56/16
f 15/57/17 18/58/17 2/59/17
f 15/60/18 16/61/18 19/62/18 18/63/18
f 16/64/19 17/65/19 20/66/19 19/67/19
f 20/68/20 17/69/20 1/70/20
f 18/71/21 21/72/21 2/73/21
f 18/74/22 19/75/22 22/76/22 21/77/22
f 19/78/23 20/79/23 23/80/23 22/81/23
f 23/82/24 20/83/24 1/84/24
f 21/85/25 24/86/25 2/87/25
f 21/88/26 22/89/26 25/90/26 24/91/26
f 22/92/27 23/93/27 26/94/27 25/95/27
f 26/96/28 23/97/28 1/98/28
f 24/99/29 3/100/29 2/101/29
f 24/102/30 25/103/30 4/104/30 3/105/30
f 25/106/31 26/107/31 5/108/31 4/109/31
f 5/110/32 26/111/32 1/112/32